# xmcd
#
# Track frame offsets: 
#        150
#        15900
#        39518
#        55240
#        76885
#        98305
#        124139
#        148714
#        170976
#        191409
#        210356
#        238714
#        255859
#        280015
#        304531
#        325693
#        332443
#
# Disc length: 4791 seconds
#
# Revision: 0
# Processed by: cddbd v1.5.2PL0 Copyright (c) Steve Scherf et al.
# Submitted via: ExactAudioCopy v1.3
#
DISCID=d112b511
DTITLE=Various Artist - Akella Presents - vol. 176 - Various Styles O
DTITLE=f Blues-Relax  CD2
DYEAR=2019
DGENRE=Blues
TTITLE0=Adi Barar Band - Magnolia
TTITLE1=Heather 'Lil' Mama ' Hardy - The Tree
TTITLE2=Dave Keller Blues Band - Answering Machine
TTITLE3=Dany Franchi - My Only One
TTITLE4=The BigBlue - Ship Shape
TTITLE5=Ryan Foret and Foret Tradition - Tennessee Whiskey
TTITLE6=RoosterHouse Gumbo Band - Reaching For The Top
TTITLE7=Blues Company - Georgia on My Mind
TTITLE8=Get The Cat - Brother's Keeper
TTITLE9=Mark Knopfler - When You Leave
TTITLE10=Big Joe and The Dynaflows - Two Years of Torture
TTITLE11=Kristy Kruger - Johnny and June
TTITLE12=Harpdog Brown And The Bloodhounds - Sacrifice
TTITLE13=Andy Watts - Junkies Monkeys and Donkeys
TTITLE14=Nine Below Zero - Sail Away
TTITLE15=Black Label Blues Band - Blue
TTITLE16=Jason Becker - Hold on to Love
EXTD=
EXTT0=
EXTT1=
EXTT2=
EXTT3=
EXTT4=
EXTT5=
EXTT6=
EXTT7=
EXTT8=
EXTT9=
EXTT10=
EXTT11=
EXTT12=
EXTT13=
EXTT14=
EXTT15=
EXTT16=
PLAYORDER=
